{
  "accessors": [
    {
      "bufferView": 0,
      "componentType": 5126,
      "count": 1944,
      "max": [
        0.9997989535331726,
        1.103327751159668,
        1.0403019189834595
      ],
      "min": [
        -0.9997989535331726,
        -1.103327751159668,
        -1.0403019189834595
      ],
      "type": "VEC3"
    },
    {
      "bufferView": 1,
      "componentType": 5126,
      "count": 1944,
      "type": "VEC3"
    },
    {
      "bufferView": 2,
      "componentType": 5126,
      "count": 1944,
      "type": "VEC2"
    },
    {
      "bufferView": 3,
      "componentType": 5125,
      "count": 3888,
      "type": "SCALAR"
    }
  ],
  "asset": {
    "generator": "Prisma3D Pro",
    "version": "2.0"
  },
  "bufferViews": [
    {
      "buffer": 0,
      "byteLength": 23328,
      "target": 34962
    },
    {
      "buffer": 1,
      "byteLength": 23328,
      "target": 34962
    },
    {
      "buffer": 2,
      "byteLength": 15552,
      "target": 34962
    },
    {
      "buffer": 3,
      "byteLength": 15552,
      "target": 34963
    }
  ],
  "buffers": [
    {
      "byteLength": 23328,
      "uri": "data:application/octet-stream;base64,"
    },
    {
      "byteLength": 23328,
      "uri": "data:application/octet-stream;base64,"
    },
    {
      "byteLength": 15552,
      "uri": "data:application/octet-stream;base64,"
    },
    {
      "byteLength": 15552,
      "uri": "data:application/octet-stream;base64,"
    }
  ],
  "images": [
    {
      "name": "BarrelPro_baseColor.png",
      "uri": "data:image/png;base64,"
    }
  ],
  "materials": [
    {
      "doubleSided": true,
      "pbrMetallicRoughness": {
        "baseColorTexture": {
          "index": 0
        },
        "metallicFactor": 0.0,
        "roughnessFactor": 0.0
      }
    }
  ],
  "meshes": [
    {
      "primitives": [
        {
          "attributes": {
            "NORMAL": 1,
            "POSITION": 0,
            "TEXCOORD_0": 2
          },
          "indices": 3,
          "material": 0,
          "mode": 4
        }
      ]
    }
  ],
  "nodes": [
    {
      "children": [
        1
      ],
      "name": "scene",
      "rotation": [
        0.0,
        -0.0,
        -0.0,
        1.0
      ],
      "scale": [
        1.0,
        1.0,
        1.0
      ],
      "translation": [
        -0.0,
        1.2228444814682007,
        0.0
      ]
    },
    {
      "children": [
        2
      ],
      "name": "Sketchfab_Scene",
      "rotation": [
        0.0,
        -0.0,
        -0.0,
        1.0
      ],
      "scale": [
        1.0,
        1.0,
        1.0
      ],
      "translation": [
        -0.0,
        0.0,
        0.0
      ]
    },
    {
      "children": [
        3
      ],
      "name": "Sketchfab_model",
      "rotation": [
        0.7071068286895752,
        -1.1371144678159085e-16,
        -1.1371144678159085e-16,
        -0.7071068286895752
      ],
      "scale": [
        1.0,
        1.0,
        1.0
      ],
      "translation": [
        -0.0,
        -9.29218510990272e-19,
        -1.4059033048852143e-07
      ]
    },
    {
      "children": [
        4
      ],
      "name": "5631d3447ee4444c9b2510ca981ef309.fbx",
      "rotation": [
        0.7071068286895752,
        -0.0,
        -0.0,
        0.7071068286895752
      ],
      "scale": [
        1.0,
        1.0,
        1.0
      ],
      "translation": [
        2.5637979419682884e-30,
        -4.440892098500626e-16,
        0.0
      ]
    },
    {
      "children": [
        5
      ],
      "name": "RootNode",
      "rotation": [
        0.0,
        -0.0,
        -0.0,
        1.0
      ],
      "scale": [
        1.0,
        1.0,
        1.0
      ],
      "translation": [
        -3.1554436208840472e-30,
        0.0,
        0.0
      ]
    },
    {
      "children": [
        6
      ],
      "name": "BarrelPro",
      "rotation": [
        0.7069846987724304,
        -0.0,
        -0.0,
        -0.7072288393974304
      ],
      "scale": [
        1.0,
        1.0,
        1.0
      ],
      "translation": [
        -0.005779620260000229,
        0.0,
        0.0
      ]
    },
    {
      "mesh": 0,
      "name": "BarrelPro_BarrelPro_0",
      "rotation": [
        0.0,
        -0.0,
        -0.0,
        1.0
      ],
      "scale": [
        1.0,
        1.0,
        1.0
      ],
      "translation": [
        -0.0,
        0.0,
        0.0
      ]
    }
  ],
  "scenes": [
    {
      "nodes": [
        0
      ]
    }
  ],
  "textures": [
    {
      "source": 0
    }
  ]
}
