{
  "accessors": [
    {
      "bufferView": 0,
      "componentType": 5126,
      "count": 1872,
      "max": [
        0.06872156262397766,
        0.06187530979514122,
        2.1892871856689453
      ],
      "min": [
        -0.2015579789876938,
        -0.16961032152175903,
        -1.0684505360401267e-16
      ],
      "type": "VEC3"
    },
    {
      "bufferView": 1,
      "componentType": 5126,
      "count": 1872,
      "type": "VEC3"
    },
    {
      "bufferView": 2,
      "componentType": 5126,
      "count": 1872,
      "type": "VEC2"
    },
    {
      "bufferView": 3,
      "componentType": 5125,
      "count": 3744,
      "type": "SCALAR"
    }
  ],
  "asset": {
    "generator": "Prisma3D Pro",
    "version": "2.0"
  },
  "bufferViews": [
    {
      "buffer": 0,
      "byteLength": 22464,
      "target": 34962
    },
    {
      "buffer": 1,
      "byteLength": 22464,
      "target": 34962
    },
    {
      "buffer": 2,
      "byteLength": 14976,
      "target": 34962
    },
    {
      "buffer": 3,
      "byteLength": 14976,
      "target": 34963
    }
  ],
  "buffers": [
    {
      "byteLength": 22464,
      "uri": "data:application/octet-stream;base64,"
    },
    {
      "byteLength": 22464,
      "uri": "data:application/octet-stream;base64,"
    },
    {
      "byteLength": 14976,
      "uri": "data:application/octet-stream;base64,"
    },
    {
      "byteLength": 14976,
      "uri": "data:application/octet-stream;base64,"
    }
  ],
  "images": [
    {
      "name": "Material.001_baseColor.png",
      "uri": "data:image/png;base64,"
    }
  ],
  "materials": [
    {
      "doubleSided": true,
      "pbrMetallicRoughness": {
        "baseColorTexture": {
          "index": 0
        },
        "metallicFactor": 0.0,
        "roughnessFactor": 0.0
      }
    }
  ],
  "meshes": [
    {
      "primitives": [
        {
          "attributes": {
            "NORMAL": 1,
            "POSITION": 0,
            "TEXCOORD_0": 2
          },
          "indices": 3,
          "material": 0,
          "mode": 4
        }
      ]
    }
  ],
  "nodes": [
    {
      "children": [
        1
      ],
      "name": "scene",
      "rotation": [
        -3.575010154577285e-08,
        4.1277186113575226e-08,
        -0.7071068286895752,
        0.7071068286895752
      ],
      "scale": [
        1.0,
        1.0,
        1.0
      ],
      "translation": [
        -3.7815709167807394e-16,
        -0.008229374885559082,
        -6.942928454378716e-09
      ]
    },
    {
      "children": [
        2
      ],
      "name": "Sketchfab_Scene",
      "rotation": [
        0.0,
        -0.0,
        -0.0,
        1.0
      ],
      "scale": [
        1.0,
        1.0,
        1.0
      ],
      "translation": [
        7.714176384265511e-15,
        -1.1797298192977905,
        8.881784197001252e-16
      ]
    },
    {
      "children": [
        3
      ],
      "name": "Sketchfab_model",
      "rotation": [
        0.7071068286895752,
        -0.0,
        -0.0,
        -0.7071068286895752
      ],
      "scale": [
        1.0,
        1.0,
        1.0
      ],
      "translation": [
        5.224930464914794e-22,
        -7.99049146849029e-08,
        -1.4210854715202004e-14
      ]
    },
    {
      "children": [
        4
      ],
      "name": "4e7d3161214c463588182ffe0e9bae6e.fbx",
      "rotation": [
        0.7071068286895752,
        -0.0,
        -0.0,
        0.7071068286895752
      ],
      "scale": [
        1.0,
        1.0,
        1.0
      ],
      "translation": [
        -0.0,
        -1.4210854715202004e-14,
        0.0
      ]
    },
    {
      "children": [
        5
      ],
      "name": "RootNode",
      "rotation": [
        0.0,
        -0.0,
        -0.0,
        1.0
      ],
      "scale": [
        1.0,
        1.0,
        1.0
      ],
      "translation": [
        -0.0,
        0.0,
        2.4868995751603507e-14
      ]
    },
    {
      "children": [
        6
      ],
      "name": "Circle",
      "rotation": [
        0.5,
        0.5,
        -0.5,
        -0.5
      ],
      "scale": [
        1.0,
        1.0,
        1.0
      ],
      "translation": [
        -0.011568818241357803,
        1.1967031955718994,
        -3.564632279401316e-15
      ]
    },
    {
      "mesh": 0,
      "name": "Circle_Material.001_0",
      "rotation": [
        0.0,
        -0.0,
        -0.0,
        1.0
      ],
      "scale": [
        1.0,
        1.0,
        1.0
      ],
      "translation": [
        1.1429364121795516e-07,
        1.6431300764452317e-14,
        9.313225746154785e-10
      ]
    }
  ],
  "scenes": [
    {
      "nodes": [
        0
      ]
    }
  ],
  "textures": [
    {
      "source": 0
    }
  ]
}
