{
  "accessors": [
    {
      "bufferView": 0,
      "componentType": 5126,
      "count": 3168,
      "max": [
        0.40178176760673523,
        0.3485605716705322,
        0.4193110167980194
      ],
      "min": [
        -0.40178176760673523,
        -0.34864723682403564,
        -0.41927215456962585
      ],
      "type": "VEC3"
    },
    {
      "bufferView": 1,
      "componentType": 5126,
      "count": 3168,
      "type": "VEC3"
    },
    {
      "bufferView": 2,
      "componentType": 5126,
      "count": 3168,
      "type": "VEC2"
    },
    {
      "bufferView": 3,
      "componentType": 5125,
      "count": 6336,
      "type": "SCALAR"
    }
  ],
  "asset": {
    "generator": "Prisma3D Pro",
    "version": "2.0"
  },
  "bufferViews": [
    {
      "buffer": 0,
      "byteLength": 38016,
      "target": 34962
    },
    {
      "buffer": 1,
      "byteLength": 38016,
      "target": 34962
    },
    {
      "buffer": 2,
      "byteLength": 25344,
      "target": 34962
    },
    {
      "buffer": 3,
      "byteLength": 25344,
      "target": 34963
    }
  ],
  "buffers": [
    {
      "byteLength": 38016,
      "uri": "data:application/octet-stream;base64,"
    },
    {
      "byteLength": 38016,
      "uri": "data:application/octet-stream;base64,"
    },
    {
      "byteLength": 25344,
      "uri": "data:application/octet-stream;base64,"
    },
    {
      "byteLength": 25344,
      "uri": "data:application/octet-stream;base64,"
    }
  ],
  "images": [
    {
      "name": "manzana.001_baseColor.png",
      "uri": "data:image/png;base64,"
    }
  ],
  "materials": [
    {
      "doubleSided": true,
      "pbrMetallicRoughness": {
        "baseColorTexture": {
          "index": 0
        },
        "metallicFactor": 0.0,
        "roughnessFactor": 0.0
      }
    }
  ],
  "meshes": [
    {
      "primitives": [
        {
          "attributes": {
            "NORMAL": 1,
            "POSITION": 0,
            "TEXCOORD_0": 2
          },
          "indices": 3,
          "material": 0,
          "mode": 4
        }
      ]
    }
  ],
  "nodes": [
    {
      "mesh": 0,
      "name": "Sphere_manzana.001_0",
      "rotation": [
        0.0,
        -0.0,
        -0.0,
        1.0
      ],
      "scale": [
        1.0,
        1.0,
        1.0
      ],
      "translation": [
        0.17845289409160614,
        0.36971575021743774,
        0.09847777336835861
      ]
    }
  ],
  "scenes": [
    {
      "nodes": [
        0
      ]
    }
  ],
  "textures": [
    {
      "source": 0
    }
  ]
}
